<?xml version="1.0" encoding="iso-8859-1"?>
<!-- Generator: Adobe Illustrator 25.2.3, SVG Export Plug-In . SVG Version: 6.00 Build 0)  -->
<svg version="1.1" id="Layer_1" xmlns="http://www.w3.org/2000/svg" xmlns:xlink="http://www.w3.org/1999/xlink" x="0px" y="0px"
	 width="145.464px" height="170.783px" viewBox="0 0 145.464 170.783" enable-background="new 0 0 145.464 170.783"
	 xml:space="preserve">
<g>
	<g>
		<ellipse fill="#020203" cx="72.732" cy="71.406" rx="72.732" ry="71.406"/>
		<path fill="#020203" d="M21.303,121.897l48.627,47.74c1.556,1.528,4.049,1.528,5.605,0l48.627-47.74L72.732,71.406L21.303,121.897
			z"/>
	</g>
	<g>
		<path fill="#FFFFFF" d="M69.402,73.262v40.327l-33.54-19.011c-1.253-0.71-2.028-2.039-2.028-3.48V53.102L69.402,73.262z"/>
		<path fill="#FFFFFF" d="M111.63,53.102v37.996c0,1.44-0.774,2.77-2.028,3.48l-33.54,19.011V73.262L111.63,53.102z"/>
		<path fill="#FFFFFF" d="M108.3,47.439l-14.454,8.194l-35.568-20.16l12.481-7.075c1.224-0.694,2.721-0.694,3.945,0L108.3,47.439z"
			/>
		<polygon fill="#FFFFFF" points="87.186,59.405 72.732,67.599 37.164,47.439 51.618,39.245 		"/>
	</g>
</g>
</svg>
